<svg width="24" height="22" viewBox="0 0 24 22" fill="none" xmlns="http://www.w3.org/2000/svg">
<path fill-rule="evenodd" clip-rule="evenodd" d="M14.1355 0.89439C12.7646 0.346076 11.2354 0.346076 9.86459 0.89439C8.8344 1.30645 8.0142 2.16653 7.1758 3.37127C6.33948 4.57302 5.40976 6.23325 4.20767 8.37984L4.20762 8.37992L4.18609 8.41837L4.16472 8.45654L4.16471 8.45656C3.00978 10.5189 2.1155 12.1158 1.54809 13.4107C0.978334 14.7109 0.681742 15.8255 0.851111 16.8973C1.07717 18.328 1.83481 19.6206 2.97259 20.5168C3.82505 21.1883 4.94244 21.4741 6.35526 21.6123C7.76228 21.7499 9.59256 21.7499 11.9563 21.7499H12H12.0437C14.4075 21.7499 16.2378 21.7499 17.6448 21.6123C19.0576 21.4741 20.175 21.1883 21.0275 20.5168C22.1652 19.6206 22.9229 18.328 23.1489 16.8973C23.3183 15.8255 23.0217 14.7109 22.452 13.4107C21.8845 12.1158 20.9903 10.5189 19.8353 8.4565L19.814 8.41837L19.7924 8.37994L19.7924 8.3799C18.5903 6.23327 17.6606 4.57302 16.8243 3.37127C15.9859 2.16653 15.1657 1.30645 14.1355 0.89439ZM12.75 7.99991C12.75 7.58569 12.4142 7.24991 12 7.24991C11.5858 7.24991 11.25 7.58569 11.25 7.99991V11.9999C11.25 12.4141 11.5858 12.7499 12 12.7499C12.4142 12.7499 12.75 12.4141 12.75 11.9999V7.99991ZM13 14.9999C13 15.5522 12.5523 15.9999 12 15.9999C11.4477 15.9999 11 15.5522 11 14.9999C11 14.4476 11.4477 13.9999 12 13.9999C12.5523 13.9999 13 14.4476 13 14.9999Z" fill="white"/>
</svg>
