<svg width="22" height="22" viewBox="0 0 22 22" fill="none" xmlns="http://www.w3.org/2000/svg">
<path fill-rule="evenodd" clip-rule="evenodd" d="M4.16957 0.250003L4.2 0.250003H5.8L5.83044 0.250003C6.36459 0.249992 6.81044 0.249983 7.17467 0.279742C7.55456 0.31078 7.91121 0.377891 8.24848 0.549735C8.76592 0.813387 9.18662 1.23408 9.45027 1.75153C9.62212 2.08879 9.68923 2.44545 9.72026 2.82533C9.75002 3.18955 9.75001 3.63538 9.75 4.16951V4.16955V4.2V5.8V5.83046V5.8305C9.75001 6.36463 9.75002 6.81045 9.72026 7.17467C9.68923 7.55456 9.62212 7.91121 9.45027 8.24848C9.18662 8.76592 8.76592 9.18662 8.24848 9.45027C7.91121 9.62212 7.55456 9.68923 7.17467 9.72026C6.81045 9.75002 6.36462 9.75001 5.8305 9.75H5.83046H5.8H4.2H4.16955H4.16951C3.63538 9.75001 3.18955 9.75002 2.82533 9.72026C2.44545 9.68923 2.08879 9.62212 1.75153 9.45027C1.23408 9.18662 0.813387 8.76592 0.549735 8.24848C0.377891 7.91121 0.31078 7.55456 0.279742 7.17467C0.249983 6.81044 0.249992 6.36459 0.250003 5.83044L0.250003 5.8V4.2L0.250003 4.16957C0.249992 3.63541 0.249983 3.18957 0.279742 2.82533C0.31078 2.44545 0.377891 2.08879 0.549735 1.75153C0.813387 1.23408 1.23408 0.813387 1.75153 0.549735C2.08879 0.377891 2.44545 0.31078 2.82533 0.279742C3.18957 0.249983 3.63541 0.249992 4.16957 0.250003ZM16.2 0.250003L16.1696 0.250003C15.6354 0.249992 15.1896 0.249983 14.8253 0.279742C14.4454 0.31078 14.0888 0.377891 13.7515 0.549735C13.2341 0.813387 12.8134 1.23408 12.5497 1.75153C12.3779 2.08879 12.3108 2.44545 12.2797 2.82533C12.25 3.18957 12.25 3.63541 12.25 4.16957V4.2V5.8V5.83044C12.25 6.36459 12.25 6.81044 12.2797 7.17467C12.3108 7.55456 12.3779 7.91121 12.5497 8.24848C12.8134 8.76592 13.2341 9.18662 13.7515 9.45027C14.0888 9.62212 14.4454 9.68923 14.8253 9.72026C15.1896 9.75002 15.6354 9.75001 16.1695 9.75H16.1696H16.2H17.8H17.8305H17.8305C18.3646 9.75001 18.8105 9.75002 19.1747 9.72026C19.5546 9.68923 19.9112 9.62212 20.2485 9.45027C20.7659 9.18662 21.1866 8.76592 21.4503 8.24848C21.6221 7.91121 21.6892 7.55456 21.7203 7.17467C21.75 6.81046 21.75 6.36465 21.75 5.83054V5.83046V5.8V4.2V4.16955V4.16947C21.75 3.63536 21.75 3.18954 21.7203 2.82533C21.6892 2.44545 21.6221 2.08879 21.4503 1.75153C21.1866 1.23408 20.7659 0.813387 20.2485 0.549735C19.9112 0.377891 19.5546 0.31078 19.1747 0.279742C18.8104 0.249983 18.3646 0.249992 17.8304 0.250003L17.8 0.250003H16.2ZM4.16957 12.25H4.2H5.8H5.83044C6.36459 12.25 6.81044 12.25 7.17467 12.2797C7.55456 12.3108 7.91121 12.3779 8.24848 12.5497C8.76592 12.8134 9.18662 13.2341 9.45027 13.7515C9.62212 14.0888 9.68923 14.4454 9.72026 14.8253C9.75002 15.1896 9.75001 15.6354 9.75 16.1695V16.1696V16.2V17.8V17.8305V17.8305C9.75001 18.3646 9.75002 18.8105 9.72026 19.1747C9.68923 19.5546 9.62212 19.9112 9.45027 20.2485C9.18662 20.7659 8.76592 21.1866 8.24848 21.4503C7.91121 21.6221 7.55456 21.6892 7.17467 21.7203C6.81046 21.75 6.36465 21.75 5.83054 21.75H5.83046H5.8H4.2H4.16955H4.16947C3.63536 21.75 3.18954 21.75 2.82533 21.7203C2.44545 21.6892 2.08879 21.6221 1.75153 21.4503C1.23408 21.1866 0.813387 20.7659 0.549735 20.2485C0.377891 19.9112 0.31078 19.5546 0.279742 19.1747C0.249983 18.8104 0.249992 18.3646 0.250003 17.8304L0.250003 17.8V16.2L0.250003 16.1696C0.249992 15.6354 0.249983 15.1896 0.279742 14.8253C0.31078 14.4454 0.377891 14.0888 0.549735 13.7515C0.813387 13.2341 1.23408 12.8134 1.75153 12.5497C2.08879 12.3779 2.44545 12.3108 2.82533 12.2797C3.18957 12.25 3.63541 12.25 4.16957 12.25ZM16.2 12.25H16.1696C15.6354 12.25 15.1896 12.25 14.8253 12.2797C14.4454 12.3108 14.0888 12.3779 13.7515 12.5497C13.2341 12.8134 12.8134 13.2341 12.5497 13.7515C12.3779 14.0888 12.3108 14.4454 12.2797 14.8253C12.25 15.1896 12.25 15.6354 12.25 16.1696V16.2V17.8V17.8304C12.25 18.3646 12.25 18.8104 12.2797 19.1747C12.3108 19.5546 12.3779 19.9112 12.5497 20.2485C12.8134 20.7659 13.2341 21.1866 13.7515 21.4503C14.0888 21.6221 14.4454 21.6892 14.8253 21.7203C15.1895 21.75 15.6354 21.75 16.1695 21.75H16.1696H16.2H17.8H17.8305H17.8305C18.3646 21.75 18.8105 21.75 19.1747 21.7203C19.5546 21.6892 19.9112 21.6221 20.2485 21.4503C20.7659 21.1866 21.1866 20.7659 21.4503 20.2485C21.6221 19.9112 21.6892 19.5546 21.7203 19.1747C21.75 18.8105 21.75 18.3646 21.75 17.8305V17.8305V17.8V16.2V16.1696V16.1695C21.75 15.6354 21.75 15.1895 21.7203 14.8253C21.6892 14.4454 21.6221 14.0888 21.4503 13.7515C21.1866 13.2341 20.7659 12.8134 20.2485 12.5497C19.9112 12.3779 19.5546 12.3108 19.1747 12.2797C18.8104 12.25 18.3646 12.25 17.8304 12.25H17.8H16.2Z" fill="white"/>
</svg>
